<svg width="20" height="20" viewBox="0 0 20 20" fill="none" xmlns="http://www.w3.org/2000/svg">
<rect width="20" height="20" fill="#F5F5F5"/>
<rect width="1920" height="1080" transform="translate(-1462 -874)" fill="white"/>
<g clip-path="url(#clip0_0_1)">
<rect x="-1201" y="-874" width="1659" height="9496.88" fill="white"/>
</g>
<rect x="-11.5" y="-104.5" width="309" height="420" rx="11.5" fill="#F9F7F5"/>
<path d="M9.99984 1.66669C14.6023 1.66669 18.3332 5.39752 18.3332 10C18.3332 14.6025 14.6023 18.3334 9.99984 18.3334C5.39734 18.3334 1.6665 14.6025 1.6665 10C1.6665 5.39752 5.39734 1.66669 9.99984 1.66669ZM12.6832 7.47502L8.95817 11.2L7.3165 9.55835C7.19802 9.44795 7.04132 9.38785 6.8794 9.39071C6.71748 9.39356 6.563 9.45916 6.44849 9.57367C6.33397 9.68818 6.26838 9.84267 6.26552 10.0046C6.26267 10.1665 6.32277 10.3232 6.43317 10.4417L8.5165 12.525C8.63369 12.6421 8.79255 12.7078 8.95817 12.7078C9.1238 12.7078 9.28265 12.6421 9.39984 12.525L13.5665 8.35835C13.6279 8.30114 13.6772 8.23214 13.7113 8.15547C13.7455 8.0788 13.7638 7.99604 13.7653 7.91212C13.7668 7.8282 13.7514 7.74485 13.7199 7.66702C13.6885 7.5892 13.6417 7.5185 13.5824 7.45916C13.523 7.39981 13.4523 7.35302 13.3745 7.32159C13.2967 7.29015 13.2133 7.27471 13.1294 7.27619C13.0455 7.27767 12.9627 7.29604 12.8861 7.3302C12.8094 7.36436 12.7404 7.41362 12.6832 7.47502Z" fill="#00CFFF"/>
<rect x="-11.5" y="-104.5" width="309" height="420" rx="11.5" stroke="#F1EAE4"/>
<defs>
<clipPath id="clip0_0_1">
<rect width="1659" height="5600" fill="white" transform="translate(-1201 -874)"/>
</clipPath>
</defs>
</svg>
